<svg width="600" height="515" viewBox="0 0 600 515" fill="none" xmlns="http://www.w3.org/2000/svg">
  <rect width="600" height="515" fill="white"/>
  <circle cx="302" cy="264" r="145" stroke="#191A23" stroke-width="38"/>
  <path d="M128 312C202 262 246 201 306 122" stroke="#191A23" stroke-width="24" stroke-linecap="round"/>
  <path d="M305 121L319 194L247 180" stroke="#191A23" stroke-width="22" stroke-linecap="round" stroke-linejoin="round"/>
  <rect x="371" y="62" width="154" height="100" rx="28" fill="#B9FF66" stroke="#191A23" stroke-width="4"/>
  <path d="M410 111H486" stroke="#191A23" stroke-width="11" stroke-linecap="round"/>
  <path d="M425 132H472" stroke="#191A23" stroke-width="11" stroke-linecap="round"/>
  <rect x="85" y="326" width="196" height="134" rx="28" fill="#F3F3F3" stroke="#191A23" stroke-width="4"/>
  <path d="M120 366H222" stroke="#191A23" stroke-width="12" stroke-linecap="round"/>
  <path d="M120 398H238" stroke="#9A9A9A" stroke-width="10" stroke-linecap="round"/>
  <path d="M120 427H196" stroke="#9A9A9A" stroke-width="10" stroke-linecap="round"/>
  <circle cx="456" cy="351" r="76" fill="#191A23"/>
  <path d="M421 367C447 367 449 323 489 323" stroke="#B9FF66" stroke-width="13" stroke-linecap="round"/>
  <path d="M477 315H501V339" stroke="#B9FF66" stroke-width="13" stroke-linecap="round" stroke-linejoin="round"/>
  <circle cx="128" cy="118" r="30" fill="#B9FF66"/>
  <circle cx="318" cy="462" r="17" fill="#B9FF66"/>
</svg>
